GIL03_free4_RRA_states
nRows=8
nColumns=47

# SIMM Motion File Header:
name GIL03_free4_RRA_states
datacolumns 47
datarows 8
otherdata 1
range 0.56983000000000028000 0.57333000000000034000
endheader
time	pelvis_tx	pelvis_ty	pelvis_tz	pelvis_tilt	pelvis_list	pelvis_rotation	hip_flexion_r	hip_adduction_r	hip_rotation_r	knee_angle_r	ankle_angle_r	subtalar_angle_r	mtp_angle_r	hip_flexion_l	hip_adduction_l	hip_rotation_l	knee_angle_l	ankle_angle_l	subtalar_angle_l	mtp_angle_l	lumbar_extension	lumbar_bending	lumbar_rotation	pelvis_tx_u	pelvis_ty_u	pelvis_tz_u	pelvis_tilt_u	pelvis_list_u	pelvis_rotation_u	hip_flexion_r_u	hip_adduction_r_u	hip_rotation_r_u	knee_angle_r_u	ankle_angle_r_u	subtalar_angle_r_u	mtp_angle_r_u	hip_flexion_l_u	hip_adduction_l_u	hip_rotation_l_u	knee_angle_l_u	ankle_angle_l_u	subtalar_angle_l_u	mtp_angle_l_u	lumbar_extension_u	lumbar_bending_u	lumbar_rotation_u
      0.56983000000000028000	      0.55882255020750959000	      0.86078952412414755000	     -0.23786519853360474000	      3.21950199823872470000	     -0.88553043571874590000	     -3.64707502346867240000	    -17.35988876716797300000	      0.57373893148943633000	      2.91142926241897860000	    -23.55389174916549400000	     10.43057956769149900000	     -0.00000000000006058801	      0.00000000000005334610	     24.35176504298245000000	     -1.26254710620759370000	      7.07093991201817040000	    -19.21500077710387100000	     -4.42166677915393790000	     -0.00000000000000479789	     -0.00000000000001009839	    -13.51595456328358200000	      0.03425906572483427400	     16.58309283820800000000	      1.47598132863827590000	      0.08481443185689123400	     -0.18170490513427226000	     19.54838490495215800000	     36.76954993507871400000	      1.62100979731796780000	     41.01989683884274700000	    -82.25772773919203500000	    -64.71407416858474400000	   -255.86881543412687000000	   -233.39958133452666000000	     -0.00000000000122114153	      0.00000000000110982213	    -33.37641697486976300000	     76.46577404579036900000	     46.86682775570112400000	   -160.20261809467576000000	     11.19863460531124500000	     -0.00000000000016734061	     -0.00000000000001547737	      0.69415573059271340000	    -37.30848632276166700000	    -43.15672923200641300000
      0.57033000000000034000	      0.55956047557293065000	      0.86083231479664302000	     -0.23795602926642906000	      3.22932598266566200000	     -0.86713114452814499000	     -3.64626155592254090000	    -17.33913095872912500000	      0.53255580696140292000	      2.87899870739736170000	    -23.68218741114490900000	     10.31366068045591800000	     -0.00000000000006120032	      0.00000000000005389726	     24.33496890710534500000	     -1.22434394746284390000	      7.09421286748691580000	    -19.29510790735157100000	     -4.41561518363782390000	     -0.00000000000000488831	     -0.00000000000001010887	    -13.51567567886442900000	      0.01556899438035687500	     16.56156921079738400000	      1.47571671804410420000	      0.08634412151099964100	     -0.18161465428779169000	     19.74682979426123500000	     36.82709826849828300000	      1.63205722021276970000	     42.01257916425107900000	    -82.47386494059814800000	    -65.00754270663796300000	   -257.31341779980193000000	   -234.27146757063701000000	     -0.00000000000123648117	      0.00000000000109780392	    -33.80804280068046100000	     76.34544459544721900000	     46.22127808735520900000	   -160.22312166804144000000	     13.00900472508252100000	     -0.00000000000019477158	     -0.00000000000001588157	      0.42192752717017584000	    -37.45168990110487100000	    -42.93607268721859800000
      0.57083000000000028000	      0.56029826346966460000	      0.86087586407669303000	     -0.23804680980154377000	      3.23924807560693880000	     -0.84870386302769951000	     -3.64544378041347320000	    -17.31787489543925000000	      0.49126599439480573000	      2.84642230287091640000	    -23.81120484288967300000	     10.19631385218965400000	     -0.00000000000006180784	      0.00000000000005443304	     24.31795708967126400000	     -1.18620309625760530000	      7.11715748737903460000	    -19.37522101272512000000	     -4.40865731786537210000	     -0.00000000000000498670	     -0.00000000000001011666	    -13.51553205945351800000	     -0.00319250095571279710	     16.54015847046242600000	      1.47543137223615140000	      0.08784879586990949900	     -0.18150408599568582000	     19.94075997465551700000	     36.88149357203156600000	      1.63822016674565710000	     43.01301512482780300000	    -82.68443496188818600000	    -65.29751148724199100000	   -258.75607402532842000000	   -235.10883012313468000000	     -0.00000000000120357406	      0.00000000000100639685	    -34.23913080866429900000	     76.21650826808272000000	     45.55351380981887400000	   -160.22630826802671000000	     14.82210545843805600000	     -0.00000000000019160222	     -0.00000000000002296172	      0.15315737591025499000	    -37.59415447781907500000	    -42.70518739077346700000
      0.57133000000000034000	      0.56103590346068921000	      0.86092015942009759000	     -0.23813752998044668000	      3.24926597893777110000	     -0.83025017982635541000	     -3.64462414315714070000	    -17.29611666136281700000	      0.44987231810783074000	      2.81370180128444810000	    -23.94094311458185200000	     10.07855769403612800000	     -0.00000000000006240206	      0.00000000000005493075	     24.30072987509283100000	     -1.14812886853274530000	      7.13976272484463960000	    -19.45533132542175600000	     -4.40079272880073620000	     -0.00000000000000508328	     -0.00000000000001012398	    -13.51552193306080900000	     -0.02202502585627089100	     16.51886570710748000000	      1.47512511965361040000	      0.08932843435326626200	     -0.18137328627755450000	     20.13010774136971300000	     36.93271594276324500000	      1.63953905997118250000	     44.02114309063806300000	    -82.88932795697098800000	    -65.58384742371787000000	   -260.19650446225705000000	   -235.91112039693388000000	     -0.00000000000118934218	      0.00000000000099837747	    -34.66962532449073800000	     76.07899668880089900000	     44.86381217459146600000	   -160.21215275188916000000	     16.63729297597425500000	     -0.00000000000020364048	     -0.00000000000000724693	     -0.11208195628074327000	    -37.73581378617792100000	    -42.46420063121863100000
      0.57183000000000028000	      0.56177338508000474000	      0.86096518833900948000	     -0.23822817972981000000	      3.25937740867199600000	     -0.81177168121021548000	     -3.64380504380375480000	    -17.27385247940695100000	      0.40837763079794887000	      2.78083908184732430000	    -24.07140093012374700000	      9.96040861235008280000	     -0.00000000000006299575	      0.00000000000005544007	     24.28328757086785200000	     -1.11012552647197270000	      7.16201768862043410000	    -19.53543027597493900000	     -4.39201974859315140000	     -0.00000000000000518656	     -0.00000000000001012765	    -13.51564354081030900000	     -0.04092816720020837200	     16.49769593402978200000	      1.47479781136977190000	      0.09078303915330271400	     -0.18122233922782313000	     20.31480729926586200000	     36.98073399112421800000	      1.63604380652198240000	     45.03690694263028900000	    -83.08843468481821000000	    -65.86642423182758000000	   -261.63442982552647000000	   -236.67811617368014000000	     -0.00000000000118274000	      0.00000000000101156749	    -35.09947980862096300000	     75.93292471611140100000	     44.15244679702301800000	   -160.18065963281370000000	     18.45412952812883100000	     -0.00000000000020720482	     -0.00000000000000068027	     -0.37371745320709659000	    -37.87658814538504300000	    -42.21322962829028600000
      0.57233000000000034000	      0.56251069773680273000	      0.86101093828961173000	     -0.23831874897791350000	      3.26958000092484590000	     -0.79326998295530338000	     -3.64298889445600340000	    -17.25107849290386900000	      0.36678486582308617000	      2.74783602615022820000	    -24.20257707943927300000	      9.84188554685732340000	     -0.00000000000006358225	      0.00000000000005593494	     24.26563051095392300000	     -1.07219736440877260000	      7.18391161025853100000	    -19.61550909226736300000	     -4.38233843032653600000	     -0.00000000000000529343	     -0.00000000000001013266	    -13.51589503816862100000	     -0.05990145538509932000	     16.47665411929032700000	      1.47444929169024560000	      0.09221262480288657000	     -0.18105134210429438000	     20.49479479774612400000	     37.02552961274120200000	      1.62777828913384950000	     46.06023842639835700000	    -83.28164664045765200000	    -66.14510590951614700000	   -263.06956316691395000000	   -237.40928797304602000000	     -0.00000000000116136037	      0.00000000000095602656	    -35.52863954797926700000	     75.77832999240062900000	     43.41971457292450500000	   -160.13180895293374000000	     20.27197030408686700000	     -0.00000000000022054192	     -0.00000000000001778564	     -0.63167863711724770000	    -38.01641098237221400000	    -41.95240852681620700000
      0.57283000000000028000	      0.56324783081422669000	      0.86105739680042648000	     -0.23840922774587697000	      3.27987140785080020000	     -0.77474669362867588000	     -3.64217805518194870000	    -17.22779098989126100000	      0.32509698451812247000	      2.71469464686115410000	    -24.33446998044178100000	      9.72300532709125780000	     -0.00000000000006415963	      0.00000000000005640202	     24.24775905444154500000	     -1.03434861367133380000	      7.20543389035623600000	    -19.69555919342887800000	     -4.37174768273060280000	     -0.00000000000000540385	     -0.00000000000001013999	    -13.51627459534456600000	     -0.07894440628786104900	     16.45574514674717300000	      1.47407942744151120000	      0.09361722871432559500	     -0.18086038958321987000	     20.67000843340635900000	     37.06707347163965900000	      1.61477536430218250000	     47.09107467116434300000	    -83.46885632489045300000	    -66.41976140456881700000	   -264.50161769447448000000	   -238.10443246645573000000	     -0.00000000000114305705	      0.00000000000092841888	    -35.95705962767933500000	     75.61523317369770300000	     42.66590728454222900000	   -160.06560878993349000000	     22.09037571353613300000	     -0.00000000000022811072	     -0.00000000000002641713	     -0.88589496208718865000	    -38.15520273205827100000	    -41.68186095823539700000
      0.57333000000000034000	      0.56398477358348109000	      0.86110455136316255000	     -0.23849960605959244000	      3.29024920374316520000	     -0.75620345421057134000	     -3.64137490083125570000	    -17.20398617967987300000	      0.28331702767422556000	      2.68141695883537250000	    -24.46707813532414000000	      9.60378720231692280000	     -0.00000000000006473063	      0.00000000000005687400	     24.22967358342781100000	     -0.99658354111315040000	      7.22657405752132400000	    -19.77557180714095300000	     -4.36024806656883080000	     -0.00000000000000551308	     -0.00000000000001015626	    -13.51678029766658200000	     -0.09805647509395681900	     16.43497385604156200000	      1.47368807880834150000	      0.09499690039786296000	     -0.18064959017888768000	     20.84038820500404700000	     37.10534926809337700000	      1.59708238384509490000	     48.12934074473449200000	    -83.64995658772208700000	    -66.69025187327349600000	   -265.93029919919690000000	   -238.76303945678342000000	     -0.00000000000112801808	      0.00000000000095005650	    -36.38468636103377900000	     75.44367791398813900000	     41.89134140906310200000	   -159.98204438260885000000	     23.90869996796763900000	     -0.00000000000021231932	     -0.00000000000002249157	     -1.13629827456102480000	    -38.29289651843305400000	    -41.40172792658911800000
